<?xml version="1.0" encoding="UTF-8" standalone="no"?>
<!-- Generator: Adobe Illustrator 16.0.4, SVG Export Plug-In . SVG Version: 6.00 Build 0)  -->

<svg
   xmlns:dc="http://purl.org/dc/elements/1.1/"
   xmlns:cc="http://creativecommons.org/ns#"
   xmlns:rdf="http://www.w3.org/1999/02/22-rdf-syntax-ns#"
   xmlns:svg="http://www.w3.org/2000/svg"
   xmlns="http://www.w3.org/2000/svg"
   xmlns:sodipodi="http://sodipodi.sourceforge.net/DTD/sodipodi-0.dtd"
   xmlns:inkscape="http://www.inkscape.org/namespaces/inkscape"
   version="1.1"
   id="Ebene_1"
   x="0px"
   y="0px"
   width="427.68896"
   height="127.97229"
   viewBox="0 0 427.68896 127.97229"
   enable-background="new 0 0 467.677 160.606"
   xml:space="preserve"
   inkscape:version="0.48.2 r9819"
   sodipodi:docname="looopingLarge.svg"><metadata
   id="metadata3867"><rdf:RDF><cc:Work
       rdf:about=""><dc:format>image/svg+xml</dc:format><dc:type
         rdf:resource="http://purl.org/dc/dcmitype/StillImage" /><dc:title></dc:title></cc:Work></rdf:RDF></metadata><defs
   id="defs3865" /><sodipodi:namedview
   pagecolor="#ffffff"
   bordercolor="#666666"
   borderopacity="1"
   objecttolerance="10"
   gridtolerance="10"
   guidetolerance="10"
   inkscape:pageopacity="0"
   inkscape:pageshadow="2"
   inkscape:window-width="1054"
   inkscape:window-height="597"
   id="namedview3863"
   showgrid="false"
   fit-margin-top="0"
   fit-margin-left="0"
   fit-margin-right="0"
   fit-margin-bottom="0"
   inkscape:zoom="1.28"
   inkscape:cx="205.32544"
   inkscape:cy="78.545089"
   inkscape:window-x="170"
   inkscape:window-y="257"
   inkscape:window-maximized="0"
   inkscape:current-layer="Ebene_1" />
<g
   id="g3831"
   transform="translate(-23.581023,-12.386828)">
	<path
   d="m 166.654,85.36 c 0,8.084 -6.585,14.562 -14.67,14.562 -8.084,0 -14.617,-6.478 -14.617,-14.562 0,-8.087 6.532,-14.564 14.617,-14.564 8.085,-0.001 14.67,6.477 14.67,14.564 z m -14.67,-7.658 c -2.517,0 -4.658,3.427 -4.658,7.658 0,4.229 2.142,7.656 4.658,7.656 2.57,0 4.711,-3.427 4.711,-7.656 0,-4.231 -2.141,-7.658 -4.711,-7.658 z"
   id="path3833"
   style="fill:#799dd2;fill-opacity:1"
   inkscape:connector-curvature="0" />
	<path
   d="m 202.358,85.36 c 0,8.084 -6.585,14.562 -14.67,14.562 -8.085,0 -14.617,-6.478 -14.617,-14.562 0,-8.087 6.532,-14.564 14.617,-14.564 8.085,-0.001 14.67,6.477 14.67,14.564 z m -14.67,-7.658 c -2.517,0 -4.659,3.427 -4.659,7.658 0,4.229 2.143,7.656 4.659,7.656 2.57,0 4.711,-3.427 4.711,-7.656 0,-4.231 -2.141,-7.658 -4.711,-7.658 z"
   id="path3835"
   style="fill:#799dd2;fill-opacity:1"
   inkscape:connector-curvature="0" />
	<path
   d="m 238.062,85.36 c 0,8.084 -6.584,14.562 -14.669,14.562 -8.086,0 -14.618,-6.478 -14.618,-14.562 0,-8.087 6.532,-14.564 14.618,-14.564 8.085,-0.001 14.669,6.477 14.669,14.564 z m -14.669,-7.658 c -2.518,0 -4.66,3.427 -4.66,7.658 0,4.229 2.142,7.656 4.66,7.656 2.569,0 4.712,-3.427 4.712,-7.656 -10e-4,-4.231 -2.143,-7.658 -4.712,-7.658 z"
   id="path3837"
   style="fill:#799dd2;fill-opacity:1"
   inkscape:connector-curvature="0" />
	<path
   d="m 260.328,99.922 c -1.927,0 -3.694,-0.43 -5.354,-1.178 v 12.478 h -9.53 V 71.384 h 2.034 l 3.748,3.213 c 2.41,-2.41 5.57,-3.802 9.103,-3.802 7.389,0 13.438,6.478 13.438,14.564 -10e-4,8.085 -6.051,14.563 -13.439,14.563 z m -1.231,-22.22 c -2.518,0 -4.66,3.427 -4.66,7.658 0,4.229 2.142,7.656 4.66,7.656 2.57,0 4.711,-3.427 4.711,-7.656 0.001,-4.231 -2.141,-7.658 -4.711,-7.658 z"
   id="path3839"
   style="fill:#799dd2;fill-opacity:1"
   inkscape:connector-curvature="0" />
	<path
   d="m 281.147,71.384 h 9.53 v 27.949 h -9.53 V 71.384 z m 9.372,-9.637 c 0,2.57 -2.091,4.551 -4.605,4.551 -2.571,0 -4.657,-1.981 -4.657,-4.551 0,-2.569 2.086,-4.657 4.657,-4.657 2.514,0 4.605,2.088 4.605,4.657 z"
   id="path3841"
   style="fill:#799dd2;fill-opacity:1"
   inkscape:connector-curvature="0" />
	<path
   d="m 314.659,70.795 c 8.354,0 11.674,5.087 11.674,10.547 v 17.99 h -9.532 v -14.135 -1.23 c 0,-4.392 -1.069,-5.837 -3.428,-5.837 -2.353,0 -3.801,1.231 -4.872,3.106 v 3.533 14.564 h -9.53 V 71.384 h 2.034 l 4.286,3.697 c 1.767,-2.037 5.406,-4.286 9.368,-4.286 z"
   id="path3843"
   style="fill:#799dd2;fill-opacity:1"
   inkscape:connector-curvature="0" />
	<path
   d="m 348.545,111.222 c -4.873,0 -9.855,-2.25 -12.155,-5.087 l 1.553,-3.805 c 2.248,1.876 5.567,3.107 7.87,3.107 4.07,0 6.694,-1.605 6.694,-5.73 v -0.963 c -1.663,0.748 -3.43,1.178 -5.355,1.178 -7.443,0 -13.438,-6.478 -13.438,-14.562 0,-8.087 5.994,-14.564 13.438,-14.564 3.532,0 6.694,1.392 9.103,3.802 l 3.749,-3.213 h 2.034 v 26.13 c -0.001,8.83 -6.588,13.707 -13.493,13.707 z m -0.216,-33.52 c -2.517,0 -4.657,3.427 -4.657,7.658 0,4.229 2.141,7.656 4.657,7.656 2.57,0 4.711,-3.427 4.711,-7.656 0,-4.231 -2.141,-7.658 -4.711,-7.658 z"
   id="path3845"
   style="fill:#799dd2;fill-opacity:1"
   inkscape:connector-curvature="0" />
	<path
   d="m 376.915,99.922 c -2.839,0 -5.25,-2.354 -5.25,-5.246 0,-2.839 2.411,-5.193 5.25,-5.193 2.835,0 5.246,2.354 5.246,5.193 0,2.891 -2.411,5.246 -5.246,5.246 z"
   id="path3847"
   style="fill:#799dd2;fill-opacity:1"
   inkscape:connector-curvature="0" />
	<path
   d="m 409.354,79.04 c -3.855,0 -6.213,2.946 -6.213,6.32 0,3.427 2.357,6.263 6.213,6.263 3.587,0 5.302,-1.231 7.279,-2.089 V 97.3 c -2.408,1.66 -4.548,2.622 -8.138,2.622 -8.94,0 -15.313,-6.585 -15.313,-14.562 0,-8.031 6.373,-14.564 15.313,-14.564 3.59,0 5.729,0.91 8.138,2.519 v 7.87 c -2.086,-0.697 -3.693,-2.145 -7.279,-2.145 z"
   id="path3849"
   style="fill:#799dd2;fill-opacity:1"
   inkscape:connector-curvature="0" />
	<path
   d="m 433.438,57.678 v 14.831 c 1.767,-1.017 3.91,-1.713 6.159,-1.713 8.354,0 11.673,5.087 11.673,10.547 v 17.99 h -9.529 v -14.136 -1.23 c 0,-4.392 -1.073,-5.837 -3.428,-5.837 -2.357,0 -3.803,1.231 -4.875,3.106 v 3.533 14.564 H 423.91 V 57.678 h 9.528 z"
   id="path3851"
   style="fill:#799dd2;fill-opacity:1"
   inkscape:connector-curvature="0" />
</g>
<path
   d="m 192.76498,124.12517 c 0,0 -40.409,10.865 -73.587,-3.923 -24.343003,-10.85 -63.442003,-51.734998 -75.757003,-42.794998 -7.122,5.169 -0.423,16.868 9.064,10.285 10.134,-7.029 13.328,-27.44 17.046,-57.332 4.195,-33.7200004 32.136003,-35.6450004 45.178003,-23.6400004 13.792,12.6960004 10.23,39.8020004 -29.101003,46.6920004 -26.959,4.723 -47.853,-7.81 -47.853,-7.81 l 1.309,-3.05 c 0,0 18.739,5.92 43.698,0.634 29.356003,-6.217 30.593003,-23.054 23.048003,-29.149 -6.556003,-5.2960004 -20.071003,-1.99 -23.371003,17.21 -5.876,34.193 -6.055,58.213 -26.189,66.842 -23.472,10.058998 -40.236,-18.684 -19.641,-31.854 22.767,-14.559 63.232,25.599 90.651003,34.937998 30.615,10.43 59.851,-2.950998 59.851,-2.950998 -3.62379,6.192558 -6.41013,11.040878 -9.11206,16.051938 5.73934,4.16385 8.23809,5.58118 14.76606,9.85106 z"
   id="path3853"
   style="fill:#799dd2;fill-opacity:1"
   inkscape:connector-curvature="0"
   sodipodi:nodetypes="cscccccccssccscccc" />
<g
   id="g3855"
   style="fill:#e6e6e6"
   transform="translate(-23.581023,-12.386828)">
	
	
</g>
<g
   id="g4406"
   style="fill:#000000"><path
     inkscape:connector-curvature="0"
     style="fill:#000000"
     id="path3857"
     d="m 56.299,50.984 c -1.083,-0.428 -4.91,0.513 -4.91,0.513 L 34.475,41.248 c 0,0 -9.72,-3.185 -10.496,-1.882 -0.63,1.048 4.793,5.413 8.099,6.923 3.305,1.511 23.779,9.739 23.779,9.739 0,0 1.137,-0.172 1.525,-1.513 0.392,-1.341 0,-3.095 -1.083,-3.531 z"
     transform="translate(-23.581021,-12.386828)" /><path
     inkscape:connector-curvature="0"
     style="fill:#000000"
     id="path3859"
     d="m 37.68,61.41 c 0,0 3.365,-25.96 3.283,-28.318 -0.082,-2.359 -4.675,-3.791 -5.455,-2.731 -0.781,1.061 -4.133,26.281 -3.707,28.539 0.427,2.267 4.74,3.804 5.879,2.51 z"
     transform="translate(-23.581021,-12.386828)" /><path
     inkscape:connector-curvature="0"
     style="fill:#000000"
     id="path3861"
     d="m 2.2330078,27.999989 c -0.679011,3.28042 -1.57725905,5.901707 -2.00696505,5.855971 -0.428453,-0.04305 -0.230513,-2.738765 0.447245,-6.020081 0.67274705,-3.28042 1.57099505,-5.902603 2.00446005,-5.856867 0.429706,0.04394 0.228007,2.740558 -0.44474,6.020977 z" /></g>
</svg>