<?xml version="1.0" encoding="UTF-8" standalone="no"?>
<!-- Generator: Adobe Illustrator 16.0.4, SVG Export Plug-In . SVG Version: 6.00 Build 0)  -->

<svg
   xmlns:dc="http://purl.org/dc/elements/1.1/"
   xmlns:cc="http://creativecommons.org/ns#"
   xmlns:rdf="http://www.w3.org/1999/02/22-rdf-syntax-ns#"
   xmlns:svg="http://www.w3.org/2000/svg"
   xmlns="http://www.w3.org/2000/svg"
   xmlns:sodipodi="http://sodipodi.sourceforge.net/DTD/sodipodi-0.dtd"
   xmlns:inkscape="http://www.inkscape.org/namespaces/inkscape"
   version="1.1"
   id="Ebene_1"
   x="0px"
   y="0px"
   width="36"
   height="36"
   viewBox="0 0 35.999998 35.999999"
   enable-background="new 0 0 595.28 841.89"
   xml:space="preserve"
   inkscape:version="0.48.2 r9819"
   sodipodi:docname="loooping.svg"
   inkscape:export-filename="C:\xampp\htdocs\loooping\img\favicon.png"
   inkscape:export-xdpi="90"
   inkscape:export-ydpi="90"><metadata
   id="metadata3013"><rdf:RDF><cc:Work
       rdf:about=""><dc:format>image/svg+xml</dc:format><dc:type
         rdf:resource="http://purl.org/dc/dcmitype/StillImage" /><dc:title></dc:title></cc:Work></rdf:RDF></metadata><defs
   id="defs3011" /><sodipodi:namedview
   pagecolor="#ffffff"
   bordercolor="#666666"
   borderopacity="1"
   objecttolerance="10"
   gridtolerance="10"
   guidetolerance="10"
   inkscape:pageopacity="0"
   inkscape:pageshadow="2"
   inkscape:window-width="1293"
   inkscape:window-height="842"
   id="namedview3009"
   showgrid="false"
   fit-margin-top="0"
   fit-margin-left="0"
   fit-margin-right="0"
   fit-margin-bottom="0"
   inkscape:zoom="11.313709"
   inkscape:cx="-2.7129285"
   inkscape:cy="14.070183"
   inkscape:window-x="43"
   inkscape:window-y="94"
   inkscape:window-maximized="0"
   inkscape:current-layer="Ebene_1" />
<path
   d="m 36.012868,35.339351 c 0,0 -9.48525,2.752871 -18.85425,-2.980268 -4.649,-2.84404 -7.2629997,-8.211457 -10.8589981,-5.504694 -1.857,1.397918 -0.834,4.197944 1.8329997,3.873092 4.2509984,-0.516623 8.8979984,-5.8285 11.1799984,-17.357653 2.781,-14.0577674 10.086,-14.8793324 13.898,-10.9182164 3.813,3.9632118 4.132,12.7143414 -5.491,14.7766374 -8.021,1.718579 -12.645,-2.63341 -12.645,-2.63341 l 0.646,-1.410492 c 0,0 4.921,3.20033 11.396,0.764978 5.355,-2.013044 5.461,-6.527456 3.677,-8.1800168 -1.829,-1.6913337 -5.637,-0.3835367 -7.399,8.8884068 -2.545,13.387105 -6.522,17.635349 -12.768,19.230275 -9.7499981,2.488797 -12.4619981,-8.211457 -5.8759981,-11.640232 5.7759981,-3.007514 10.1589981,2.009899 13.4639981,4.152885 9.236,5.987781 16.398,1.052106 16.398,1.052106 -0.502912,1.964098 -1.431791,3.374675 -2.16975,4.883092 1.272723,0.960176 2.234703,1.62148 3.57,3.00351 z"
   id="path3001"
   inkscape:connector-curvature="0"
   style="fill:#799dd2;fill-opacity:1"
   sodipodi:nodetypes="cccccccccccccccccc" />
<g
   id="g3003"
   transform="matrix(0.83875579,0,0,0.86849363,-232.96095,-348.84502)"
   inkscape:transform-center-x="-3.0642836"
   inkscape:transform-center-y="0.96306054">
	<path
   d="m 294.17379,414.41192 c -0.98053,-1.10747 -2.70301,-0.0829 -2.70301,-0.0829 l -8.08678,-6.154 c 0,0 -5.091,-2.352 -5.596,-1.694 -0.41,0.533 2.265,3.255 3.969,4.287 1.703,1.034 10.76388,6.1342 10.76388,6.1342 0,0 0.64558,-0.66262 1.29355,-1.24215 0.43173,-0.42513 0.92136,-0.94113 0.35936,-1.24813 z"
   id="path3005"
   inkscape:connector-curvature="0"
   sodipodi:nodetypes="cccccccc"
   style="fill:#000000;fill-opacity:1" />
	<path
   d="m 283.846,419.359 c 0,0 3.486,-13.923 3.591,-15.211 0.105,-1.291 -2.305,-2.361 -2.797,-1.836 -0.493,0.528 -3.924,14.05 -3.835,15.306 0.087,1.262 2.337,2.373 3.041,1.741 z"
   id="path3007"
   inkscape:connector-curvature="0"
   style="fill:#000000;fill-opacity:1" />
</g>
</svg>